<svg xmlns="http://www.w3.org/2000/svg" width="9" height="10" viewBox="0 0 9 10">
  <defs>
    <style>
      .cls-1 {
        fill: #727272;
        fill-rule: evenodd;
      }
    </style>
  </defs>
  <path id="angle_right" class="cls-1" d="M966.907,320.768l-4.338-4.66a0.279,0.279,0,0,0-.428,0l-0.466.5a0.329,0.329,0,0,0-.092.23,0.325,0.325,0,0,0,.092.23L965.334,321l-3.659,3.93a0.334,0.334,0,0,0,0,.46l0.466,0.5a0.279,0.279,0,0,0,.428,0l4.338-4.661A0.323,0.323,0,0,0,967,321a0.329,0.329,0,0,0-.092-0.231h0Zm0,0-3.482.231a0.326,0.326,0,0,0-.093-0.231L959,316.108a0.29,0.29,0,0,0-.214-0.1,0.287,0.287,0,0,0-.214.1l-0.466.5a0.334,0.334,0,0,0-.093.23,0.331,0.331,0,0,0,.093.23L961.759,321l-3.658,3.93a0.331,0.331,0,0,0,0,.46l0.466,0.5a0.283,0.283,0,0,0,.214.1,0.286,0.286,0,0,0,.214-0.1l4.337-4.661a0.32,0.32,0,0,0,.093-0.229h0Zm0,0" transform="translate(-958 -316)"/>
</svg>
