<svg xmlns="http://www.w3.org/2000/svg" width="16" height="16" viewBox="0 0 16 16">
  <defs>
    <style>
      .cls-1 {
        fill: #fe3e57;
        fill-rule: evenodd;
      }
    </style>
  </defs>
  <path class="cls-1" d="M1317.12,1762.25h-0.75V1761h-1.25v1.25h-8.24V1761h-1.26v1.25h-0.75a1.874,1.874,0,0,0-1.87,1.87v11a1.876,1.876,0,0,0,1.87,1.88h12.25a1.878,1.878,0,0,0,1.88-1.88v-11A1.876,1.876,0,0,0,1317.12,1762.25Zm-12.25,1.25h0.75v1.25h1.26v-1.25h8.24v1.25h1.25v-1.25h0.75a0.625,0.625,0,0,1,.63.62v1.5h-13.5v-1.5A0.623,0.623,0,0,1,1304.87,1763.5Zm12.25,12.25h-12.25a0.625,0.625,0,0,1-.62-0.63v-8.25h13.5v8.25A0.627,0.627,0,0,1,1317.12,1775.75Zm-11.75-7.56h1.25v1.25h-1.25v-1.25Zm2.5,0h1.25v1.25h-1.25v-1.25Zm2.5,0h1.25v1.25h-1.25v-1.25Zm2.5,0h1.25v1.25h-1.25v-1.25Zm2.5,0h1.25v1.25h-1.25v-1.25Zm-10,2.5h1.25v1.25h-1.25v-1.25Zm2.5,0h1.25v1.25h-1.25v-1.25Zm2.5,0h1.25v1.25h-1.25v-1.25Zm2.5,0h1.25v1.25h-1.25v-1.25Zm-7.5,2.5h1.25v1.25h-1.25v-1.25Zm2.5,0h1.25v1.25h-1.25v-1.25Zm2.5,0h1.25v1.25h-1.25v-1.25Zm2.5,0h1.25v1.25h-1.25v-1.25Zm2.5-2.5h1.25v1.25h-1.25v-1.25Z" transform="translate(-1303 -1761)"/>
</svg>
