<svg xmlns="http://www.w3.org/2000/svg" width="20" height="20" viewBox="0 0 20 20">
  <defs>
    <style>
      .cls-1 {
        fill: #fe3e57;
        fill-rule: evenodd;
      }
    </style>
  </defs>
  <path id="checkmark" class="cls-1" d="M422.071,1657.48a10,10,0,1,0,2.929,7.07A9.931,9.931,0,0,0,422.071,1657.48ZM415,1673.38a8.83,8.83,0,1,1,8.828-8.83A8.838,8.838,0,0,1,415,1673.38Zm3.949-12.04-5.174,5.18-2.724-2.73a0.587,0.587,0,1,0-.829.83l3.138,3.14a0.59,0.59,0,0,0,.829,0l5.588-5.59A0.586,0.586,0,0,0,418.949,1661.34Z" transform="translate(-405 -1654.56)"/>
</svg>
