<svg xmlns="http://www.w3.org/2000/svg" width="16" height="16" viewBox="0 0 16 16">
  <defs>
    <style>
      .cls-1 {
        fill: #fe3e57;
        fill-rule: evenodd;
      }
    </style>
  </defs>
  <path id="Comment" class="cls-1" d="M607.375,1097h-14.75a0.624,0.624,0,0,0-.625.62V1110a0.624,0.624,0,0,0,.625.62h5.53l1.317,2.09a0.626,0.626,0,0,0,1.056,0l1.316-2.09h5.531A0.624,0.624,0,0,0,608,1110v-12.38A0.624,0.624,0,0,0,607.375,1097Zm-0.625,12.37H601.5a0.616,0.616,0,0,0-.529.3L600,1111.2l-0.972-1.53a0.613,0.613,0,0,0-.528-0.3h-5.25v-11.12h13.5v11.12Zm-7.531-5.56a0.781,0.781,0,1,1,.781.78A0.781,0.781,0,0,1,599.219,1103.81Zm-3.125,0a0.781,0.781,0,1,1,.781.78A0.781,0.781,0,0,1,596.094,1103.81Zm6.25,0a0.781,0.781,0,1,1,.781.78A0.781,0.781,0,0,1,602.344,1103.81Z" transform="translate(-592 -1097)"/>
</svg>
