<svg xmlns="http://www.w3.org/2000/svg" width="18" height="20" viewBox="0 0 18 20">
  <defs>
    <style>
      .cls-1 {
        fill: #fe3e57;
        fill-rule: evenodd;
      }
    </style>
  </defs>
  <path class="cls-1" d="M396,1744.94v10.31a1.7,1.7,0,0,0,.18.75l5.571-5.44C399.617,1748.47,398.22,1747.11,396,1744.94Zm12.248,5.62,5.57,5.44a1.686,1.686,0,0,0,.181-0.75v-10.31C411.869,1747.02,410.406,1748.45,408.248,1750.56ZM405,1742.94a0.585,0.585,0,1,0,.591.54A0.591,0.591,0,0,0,405,1742.94Zm2.151,8.2h-4.3l-5.819,5.69a1.805,1.805,0,0,0,.771.17h14.4a1.805,1.805,0,0,0,.771-0.17Zm-8.751-5.52v-3.51l-1.8,1.76Zm15-1.75-1.8-1.76v3.51Zm-6.248,6.1,3.248-3.17v-9.05a0.756,0.756,0,0,0-.769-0.75h-9.374a0.644,0.644,0,0,0-.656.64v9.16l3.248,3.17h4.3Zm-6.351-6.45a4.2,4.2,0,0,1,8.4,0,1.8,1.8,0,0,1-3,1.3,1.744,1.744,0,1,1,.6-1.3,0.6,0.6,0,0,0,1.2,0,3,3,0,0,0-6,0,2.894,2.894,0,0,0,1.386,2.47,3.177,3.177,0,0,0,3.028.15,0.586,0.586,0,1,1,.5,1.06,4.362,4.362,0,0,1-4.176-.22A4.067,4.067,0,0,1,400.8,1743.52Z" transform="translate(-396 -1737)"/>
</svg>
