<?xml version="1.0" encoding="UTF-8"?>
<svg xmlns="http://www.w3.org/2000/svg" xmlns:xlink="http://www.w3.org/1999/xlink" width="15pt" height="15pt" viewBox="0 0 15 15" version="1.1">
<g id="surface1">
<path style=" stroke:none;fill-rule:nonzero;fill:rgb(0%,0%,0%);fill-opacity:1;" d="M 15 7.671875 C 15 11.816406 12.023438 14.765625 7.621094 14.765625 C 3.40625 14.765625 0 11.519531 0 7.5 C 0 3.480469 3.40625 0.234375 7.621094 0.234375 C 9.675781 0.234375 11.402344 0.953125 12.734375 2.136719 L 10.660156 4.039062 C 7.945312 1.539062 2.898438 3.414062 2.898438 7.5 C 2.898438 10.035156 5.023438 12.085938 7.621094 12.085938 C 10.640625 12.085938 11.773438 10.027344 11.949219 8.957031 L 7.621094 8.957031 L 7.621094 6.457031 L 14.878906 6.457031 C 14.949219 6.828125 15 7.1875 15 7.671875 Z M 15 7.671875 "/>
</g>
</svg>
