<svg xmlns="http://www.w3.org/2000/svg" width="16" height="16" viewBox="0 0 16 16">
  <defs>
    <style>
      .cls-1 {
        fill: #727272;
        fill-rule: evenodd;
      }
    </style>
  </defs>
  <path id="home_icon" class="cls-1" d="M884,310l-7.771,6.858a0.665,0.665,0,0,0-.064.925h0a0.637,0.637,0,0,0,.909.065l0.287-.253v6.44A1.95,1.95,0,0,0,879.294,326H882.9v-5.274a1.138,1.138,0,0,1,1.128-1.146h0a1.138,1.138,0,0,1,1.128,1.146V326H888.7a1.95,1.95,0,0,0,1.934-1.965v-6.44l0.286,0.253a0.637,0.637,0,0,0,.909-0.065h0a0.663,0.663,0,0,0-.064-0.925Zm5.35,14.035a0.65,0.65,0,0,1-.645.655h-2.256v-3.964a2.437,2.437,0,0,0-2.417-2.456h0a2.437,2.437,0,0,0-2.417,2.456v3.964h-2.32a0.65,0.65,0,0,1-.645-0.655v-7.578l5.35-4.722,5.35,4.722v7.578Z" transform="translate(-876 -310)"/>
</svg>
