<svg xmlns="http://www.w3.org/2000/svg" width="20" height="19.97" viewBox="0 0 20 19.97">
  <defs>
    <style>
      .cls-1 {
        fill: #fe3e57;
        fill-rule: evenodd;
      }
    </style>
  </defs>
  <path id="phone_icon" class="cls-1" d="M414.477,1551.76l-2.485-2.49a1.807,1.807,0,0,0-2.485,0l-0.414.42,4.969,4.97,0.415-.41A1.763,1.763,0,0,0,414.477,1551.76Zm-7.982-1.35-4.912-4.92a1.323,1.323,0,0,1-.09-1.75l-4.958-4.97a6.341,6.341,0,0,0,.3,8.6l7.774,7.78a6.291,6.291,0,0,0,8.587.31l-4.958-4.96A1.334,1.334,0,0,1,406.5,1550.41Zm-3.782-7.94a1.764,1.764,0,0,0,0-2.49l-2.485-2.48a1.787,1.787,0,0,0-2.485,0l-0.414.41,4.969,4.98Z" transform="translate(-395 -1537.03)"/>
</svg>
