<?xml version="1.0" encoding="UTF-8"?>
<svg xmlns="http://www.w3.org/2000/svg" xmlns:xlink="http://www.w3.org/1999/xlink" width="12pt" height="16pt" viewBox="0 0 12 16" version="1.1">
<g id="surface1">
<path style=" stroke:none;fill-rule:nonzero;fill:rgb(0%,0%,0%);fill-opacity:1;" d="M 6.375 0.203125 C 3.167969 0.203125 0 2.339844 0 5.800781 C 0 8 1.238281 9.25 1.988281 9.25 C 2.296875 9.25 2.476562 8.386719 2.476562 8.144531 C 2.476562 7.851562 1.734375 7.234375 1.734375 6.023438 C 1.734375 3.511719 3.648438 1.730469 6.121094 1.730469 C 8.25 1.730469 9.824219 2.941406 9.824219 5.164062 C 9.824219 6.820312 9.160156 9.933594 7.003906 9.933594 C 6.226562 9.933594 5.558594 9.371094 5.558594 8.566406 C 5.558594 7.382812 6.382812 6.242188 6.382812 5.023438 C 6.382812 2.953125 3.449219 3.328125 3.449219 5.828125 C 3.449219 6.351562 3.515625 6.933594 3.75 7.414062 C 3.320312 9.269531 2.4375 12.035156 2.4375 13.945312 C 2.4375 14.539062 2.523438 15.117188 2.578125 15.710938 C 2.683594 15.828125 2.632812 15.816406 2.792969 15.757812 C 4.367188 13.601562 4.3125 13.179688 5.023438 10.355469 C 5.410156 11.085938 6.402344 11.480469 7.191406 11.480469 C 10.507812 11.480469 12 8.246094 12 5.332031 C 12 2.226562 9.320312 0.203125 6.375 0.203125 Z M 6.375 0.203125 "/>
</g>
</svg>
