<svg xmlns="http://www.w3.org/2000/svg" width="20" height="20" viewBox="0 0 20 20">
  <defs>
    <style>
      .cls-1 {
        fill: #8d8d8d;
        fill-rule: evenodd;
      }
    </style>
  </defs>
  <path class="cls-1" d="M965.9,6011.26a0.832,0.832,0,0,0-.387,1.11,8.318,8.318,0,1,1-2.335-2.91,0.831,0.831,0,1,0,1.037-1.3A10,10,0,1,0,968,6016a9.9,9.9,0,0,0-.992-4.35,0.83,0.83,0,0,0-1.113-.39h0Zm0,0M958,6009.33a0.839,0.839,0,0,0-.833.84V6016a0.831,0.831,0,0,0,.833.83h4.167a0.83,0.83,0,1,0,0-1.66h-3.334v-5a0.839,0.839,0,0,0-.833-0.84h0Zm0,0" transform="translate(-948 -6006)"/>
</svg>
