<?xml version="1.0" encoding="UTF-8"?>
<svg xmlns="http://www.w3.org/2000/svg" xmlns:xlink="http://www.w3.org/1999/xlink" width="14pt" height="14pt" viewBox="0 0 14 14" version="1.1">
<g id="surface1">
<path style=" stroke:none;fill-rule:nonzero;fill:rgb(0%,0%,0%);fill-opacity:1;" d="M 12.5625 4.148438 C 12.570312 4.273438 12.570312 4.398438 12.570312 4.523438 C 12.570312 8.316406 9.683594 12.683594 4.40625 12.683594 C 2.78125 12.683594 1.269531 12.214844 0 11.398438 C 0.230469 11.425781 0.453125 11.433594 0.691406 11.433594 C 2.035156 11.433594 3.269531 10.980469 4.253906 10.207031 C 2.992188 10.179688 1.9375 9.355469 1.574219 8.21875 C 1.75 8.242188 1.925781 8.261719 2.113281 8.261719 C 2.371094 8.261719 2.628906 8.226562 2.871094 8.164062 C 1.554688 7.898438 0.570312 6.742188 0.570312 5.347656 L 0.570312 5.3125 C 0.949219 5.527344 1.394531 5.660156 1.867188 5.675781 C 1.09375 5.160156 0.585938 4.28125 0.585938 3.285156 C 0.585938 2.753906 0.726562 2.265625 0.976562 1.839844 C 2.390625 3.578125 4.511719 4.71875 6.894531 4.839844 C 6.847656 4.628906 6.824219 4.40625 6.824219 4.183594 C 6.824219 2.601562 8.101562 1.316406 9.691406 1.316406 C 10.519531 1.316406 11.265625 1.660156 11.789062 2.222656 C 12.4375 2.097656 13.058594 1.855469 13.609375 1.527344 C 13.394531 2.195312 12.941406 2.753906 12.347656 3.109375 C 12.925781 3.046875 13.484375 2.886719 14 2.664062 C 13.609375 3.234375 13.121094 3.738281 12.5625 4.148438 Z M 12.5625 4.148438 "/>
</g>
</svg>
